<svg xmlns="http://www.w3.org/2000/svg" viewBox="0 0 32 32">
  <rect width="32" height="32" rx="8" fill="#dc2626"/>
  <path d="M9 11.5C9 9 11 7 13.5 7h5C21 7 23 9 23 11.5v4c0 1.5-.7 2.8-1.8 3.7L19 21v2.5c0 .8-.7 1.5-1.5 1.5h-3c-.8 0-1.5-.7-1.5-1.5V21l-2.2-1.8C9.7 18.3 9 17 9 15.5v-4z" fill="white"/>
  <line x1="13" y1="21" x2="19" y2="21" stroke="#dc2626" stroke-width="1.5" stroke-linecap="round"/>
  <path d="M12.5 11v3.5M16 10.5v4M19.5 11v3.5" stroke="#dc2626" stroke-width="1.5" stroke-linecap="round"/>
</svg>
