<svg xmlns="http://www.w3.org/2000/svg" viewBox="0 0 32 32">
  <rect width="32" height="32" rx="7" fill="#dc2626"/>
  <g transform="translate(4, 3) scale(0.75)">
    <path d="M16 4c-3.5 0-6.5 1.2-8.5 3.5C5.5 10 5 13 5.5 16c.5 3 2 5.5 4 7l2 2c.5.5 1.2.5 1.7 0l1.3-1.3c.5-.5 1.3-.5 1.8 0l1.3 1.3c.5.5 1.2.5 1.7 0l2-2c2-1.5 3.5-4 4-7 .5-3 0-6-2-8.5C21.5 5.2 19.5 4 16 4z" fill="white" opacity="0.95"/>
    <ellipse cx="11" cy="12" rx="2.2" ry="2.8" fill="#dc2626" opacity="0.6"/>
    <ellipse cx="16" cy="11" rx="2.2" ry="2.8" fill="#dc2626" opacity="0.6"/>
    <ellipse cx="21" cy="12" rx="2.2" ry="2.8" fill="#dc2626" opacity="0.6"/>
    <ellipse cx="13.5" cy="17" rx="2" ry="2.5" fill="#dc2626" opacity="0.5"/>
    <ellipse cx="18.5" cy="17" rx="2" ry="2.5" fill="#dc2626" opacity="0.5"/>
  </g>
</svg>
